<mxfile host="app.diagrams.net" modified="2023-04-11T17:59:17.816Z" agent="Mozilla/5.0 (Windows NT 10.0; Win64; x64) AppleWebKit/537.36 (KHTML, like Gecko) Chrome/110.0.0.0 YaBrowser/23.3.1.895 Yowser/2.5 Safari/537.36" version="21.1.5" etag="fgPmroc4xB5goFqbckXq" type="github">
  <diagram name="Страница 1" id="giRGWVM-O5TosdVn8cb5">
    <mxGraphModel>
      <root>
        <mxCell id="0" />
        <mxCell id="1" parent="0" />
      </root>
    </mxGraphModel>
  </diagram>
</mxfile>
